<svg xmlns="http://www.w3.org/2000/svg" width="224.482" height="400"><g data-name="Group 27820"><g data-name="Group 27818"><g data-name="Group 27814"><path d="M91.003 200.233a31.391 31.391 0 0 0-20.276-11.6 53.451 53.451 0 0 0-11.919-.391 33.366 33.366 0 0 0-6.008 1 43.422 43.422 0 0 0-5.858 2.181 30.8 30.8 0 0 0-15.23 13.686 43.38 43.38 0 0 0-4.674 21.61c.312 7.432 2.625 15.44 8.2 20.661a31.822 31.822 0 0 0 4.458 3.184.83.83 0 0 0 .4.138 36.075 36.075 0 0 0 12.118 7.221 36.616 36.616 0 0 0 22.295.769 33.986 33.986 0 0 0 17.981-13.127 38.265 38.265 0 0 0 7.053-21.3c.159-8.713-3.296-17.165-8.54-24.032Zm-12.394 54.22a33.15 33.15 0 0 1-20.559 2.812 37.157 37.157 0 0 1-15.206-6.3.252.252 0 0 0 .048-.036 8.432 8.432 0 0 0 1.34-2.223c.445-.877.913-1.742 1.436-2.577a25.943 25.943 0 0 1 3.442-4.362 24.436 24.436 0 0 1 9.282-5.99 25.311 25.311 0 0 1 20.787 2 24.969 24.969 0 0 1 7.1 6.254 34.332 34.332 0 0 1 1.82 2.98 31.693 31.693 0 0 1-9.49 7.442Zm10.9-9.162a20.947 20.947 0 0 0-3.262-4.692 23.244 23.244 0 0 0-4.524-3.875 26.939 26.939 0 0 0-10.97-4.206 25.308 25.308 0 0 0-21.808 6.849 28 28 0 0 0-4.278 5.131 25.681 25.681 0 0 0-1.676 2.962 6.91 6.91 0 0 0-.913 2.938c-.4-.306-.793-.625-1.184-.949a.824.824 0 0 0-.324-.372 7.914 7.914 0 0 1-.649-.475c-.228-.21-.463-.421-.685-.637a30.747 30.747 0 0 1-3.466-3.977.61.61 0 0 0-.216-.18 30.323 30.323 0 0 1-1.67-2.541 29.153 29.153 0 0 1-3.472-9.745 40.6 40.6 0 0 1 2.175-21 27.254 27.254 0 0 1 11.1-13.974 37.4 37.4 0 0 1 10.123-4.44 38.172 38.172 0 0 1 11.174-.973 36.84 36.84 0 0 1 9.2 1.274 30.563 30.563 0 0 1 10.448 5.407 32.955 32.955 0 0 1 7.846 10.039 34.917 34.917 0 0 1 4.028 11.47 34.219 34.219 0 0 1-3.43 20.27 36.849 36.849 0 0 1-3.569 5.696Z" data-name="Path 22134"/><path d="M74.235 205.069a13.642 13.642 0 0 0-11.718-3.93 13.211 13.211 0 0 0-9.618 7.239 14.02 14.02 0 0 0 .775 13.271 13.782 13.782 0 0 0 10.189 6.819 11.736 11.736 0 0 0 10.4-4.6c.27-.294.535-.595.775-.913 2.577-3.424 2.878-8.225 2.031-12.3a11.084 11.084 0 0 0-2.834-5.586Zm-17.669 16.822a11.993 11.993 0 0 1-2.121-11.253 11.082 11.082 0 0 1 7.456-6.909 10.9 10.9 0 0 1 9.955 2.661 8.906 8.906 0 0 1 2.109 2.74c.018.036.03.066.042.084s.012.036.024.066c.06.168.126.336.18.5.114.342.216.7.306 1.051q.144.586.252 1.172c.036.192.066.384.1.577 0 .018.006.024.006.036v.024c.018.132.03.27.048.4a26.8 26.8 0 0 1 .108 2.691c0 .469-.024.943-.066 1.412a7.483 7.483 0 0 1-.18 1.22c-.108.5-.246 1-.4 1.49a1.008 1.008 0 0 0-.637.625 9.438 9.438 0 0 1-6.741 5.551 15.717 15.717 0 0 1-2.253.216 11.063 11.063 0 0 1-8.188-4.354Z" data-name="Path 22135"/></g><g data-name="Group 27815"><path d="M224.315 384.317q-1.568-3.172-2.908-6.434c.162-.12.33-.24.487-.366a2.812 2.812 0 0 0 .336-.318 3.4 3.4 0 0 0 .469-.625 2.339 2.339 0 0 0 .324-1.075 1.719 1.719 0 0 0-.487-1.172 1.446 1.446 0 0 0-.288-.216 6.534 6.534 0 0 0-.174-.9c-.1-.36-.216-.721-.324-1.081-.246-.811-.487-1.616-.733-2.427-.234-.781-.4-1.574-.631-2.355a90.67 90.67 0 0 0-.625-2.061 13.453 13.453 0 0 0-2.86-13.277 14.327 14.327 0 0 0-2.121-1.85c-3.136-9.42-6.338-18.828-9.847-28.116-.5-1.346-1.045-2.673-1.574-4.013s-.9-2.848-2-3.839a.827.827 0 0 0-.379-.2 1.047 1.047 0 0 0-.589-.144 18.634 18.634 0 0 0-4.356 1.412c-1.316.481-2.637.943-3.953 1.418-1.292.463-2.589.9-3.893 1.34-.589.2-1.171.439-1.748.685l-1.1-3.647a1.4 1.4 0 0 0-1.7-.961c-3.959 1.274-7.948 2.427-11.871 3.821-2.025.721-4.043 1.46-6.038 2.259-.991.4-1.977.811-2.962 1.226-.439.186-.883.36-1.31.571a3.1 3.1 0 0 0-1.22 1.19c-.577.847.192 1.73 1.027 1.856.174.583.366 1.154.571 1.724a8.45 8.45 0 0 0-.817.246c-.739.258-1.49.5-2.235.745-1.418.457-2.848.871-4.266 1.322-1.37.433-2.752.841-4.1 1.328a15.6 15.6 0 0 0-4.38 2.013.8.8 0 0 0-.054 1.141c.487 1.766.847 3.557 1.37 5.317.559 1.874 1.172 3.737 1.76 5.605 1.184 3.737 2.457 7.444 3.755 11.138q3.848 10.958 8.086 21.778c.793 2.019 1.58 4.037 2.427 6.038.421.985.811 1.989 1.322 2.938a14.812 14.812 0 0 0 1.616 2.854c.276.613.547 1.226.811 1.832.949 2.2 1.868 4.41 2.854 6.584a1.181 1.181 0 0 0 1.045.6c5.029-.222 9.642-2.319 14.244-4.163 4.674-1.868 9.348-3.725 13.992-5.659a244.291 244.291 0 0 0 6.927-3.028c.631 1.748 1.256 3.5 1.862 5.257a1.268 1.268 0 0 0 2.283.3q1.73-2.514 3.533-4.974c.457-.625.919-1.244 1.382-1.862l.006-.006c.246.072.493.144.739.228.625.222 1.232.481 1.844.733 1.52.625 3.136 1.045 4.7 1.532a1.566 1.566 0 0 0 1.771-2.262Zm-7.149-24.542a10.537 10.537 0 0 1-2.265 7.8 13.3 13.3 0 0 1-14 3.971 12.34 12.34 0 0 1-6.14-5.491 16.331 16.331 0 0 1-.883-1.742 20.146 20.146 0 0 1-.469-3.31 8.535 8.535 0 0 1 .7-4.692 9.7 9.7 0 0 1 2.938-3.094c4.752-3.346 11.361-3.905 16.143-.288a10.107 10.107 0 0 1 3.976 6.846Zm-50.219-36.617q2.947-1.18 5.924-2.277c3.4-1.256 6.795-2.553 10.243-3.689.8 2.7 1.592 5.407 2.4 8.11-3.316 1.2-6.651 2.337-9.973 3.515q-2.884 1.027-5.755 2.067c-.919.336-1.76.787-2.661 1.172-.324.138-.685.318-.949.06a5.2 5.2 0 0 1-.715-1.55c-.829-1.917-1.61-3.875-2.559-5.737.475-.168.931-.4 1.418-.6q1.302-.551 2.627-1.071Zm25.335 65c-4.446 1.911-8.891 3.851-13.4 5.6a29.48 29.48 0 0 1-7.125 1.977c-.925-1.856-1.9-3.695-2.848-5.545-.607-1.184-1.19-2.409-1.832-3.593a13.63 13.63 0 0 1-.168-.529 47.367 47.367 0 0 0-.919-2.782c-.685-1.838-1.412-3.659-2.121-5.485q-2.082-5.344-4.139-10.7-4.19-10.85-8.243-21.754c-.757-2.025-1.544-4.043-2.307-6.062-.691-1.832-1.526-3.593-2.265-5.395a23.564 23.564 0 0 0 4.35-1.009c1.43-.378 2.848-.781 4.278-1.172 1.394-.378 2.782-.8 4.163-1.232a62.7 62.7 0 0 0 2.247-.739 7.939 7.939 0 0 0 .907-.372c.2.523.415 1.045.613 1.568.4 1.033.7 2.445 1.706 3.082 1.021.649 2.115.246 3.184-.018 2.019-.5 3.971-1.238 5.942-1.9 2.2-.739 4.41-1.454 6.6-2.211a330.35 330.35 0 0 0 6.7-2.361 1.429 1.429 0 0 0 .979-1.73q-.748-2.514-1.508-5.017c.553-.09 1.111-.2 1.652-.336 1.364-.355 2.715-.787 4.067-1.214 1.292-.4 2.571-.847 3.851-1.3.715-.252 1.424-.5 2.133-.757.469-.168.955-.318 1.424-.511.168.589.4 1.172.6 1.766l1.172 3.509c.793 2.391 1.67 4.752 2.5 7.131q2.5 7.137 4.95 14.287c.559 1.628 1.111 3.256 1.67 4.884a17.157 17.157 0 0 0-14.064 1.232 15.458 15.458 0 0 0-4.716 4.079 9.477 9.477 0 0 0-1.79 6.206 15.688 15.688 0 0 0 3.094 9.282 15.176 15.176 0 0 0 4.422 4.338 12.557 12.557 0 0 0 4.62 1.718 26.5 26.5 0 0 0 .793 2.577c.5 1.466 1.033 2.914 1.562 4.368.048.138.1.276.15.414a530.308 530.308 0 0 1-12.884 5.704Zm25.527-6.35c-1.34-.517-3.364-1.37-4.386.084-1.322 1.874-2.637 3.767-3.893 5.7q-.775-1.955-1.544-3.911a1.553 1.553 0 0 0-.2-.877 1.441 1.441 0 0 0-.276-.342c-.144-.378-.294-.751-.439-1.129-.541-1.4-1.081-2.8-1.652-4.187-.258-.625-.5-1.25-.787-1.85a16.716 16.716 0 0 0 11.078-3.893 95.787 95.787 0 0 0 4.344 11.193c-.755-.252-1.506-.502-2.245-.79Z" data-name="Path 22137"/><path d="M187.782 337.697a7.26 7.26 0 0 0-3.352.4 60.909 60.909 0 0 0-3.382 1.027c-2.223.751-4.332 1.718-6.518 2.547a6.6 6.6 0 0 1-1.538.439c-.565.072-1.135-.042-1.7-.006a4.736 4.736 0 0 0-2.559.979c-.691.511-1.286 1.148-1.977 1.664a3.335 3.335 0 0 1-2.3.649c-1.892-.048-4.6.373-4.7 2.752a.754.754 0 0 0 1.394.379c.451-.9 1.52-.871 2.379-.769a6.8 6.8 0 0 0 3.809-.385 11.821 11.821 0 0 0 2.427-1.844 4.477 4.477 0 0 1 1.009-.7 3.634 3.634 0 0 1 1.628-.108 9.723 9.723 0 0 0 4.007-1.021c1.28-.541 2.571-1.057 3.863-1.568a131.954 131.954 0 0 1 3.983-1.484 11.091 11.091 0 0 0 3.851-1.742.724.724 0 0 0-.324-1.209Z" data-name="Path 22138"/><path d="M176.229 370.992a3.893 3.893 0 0 0-.979.2 4.711 4.711 0 0 0-.949.409 20.4 20.4 0 0 0-1.46.823 13.868 13.868 0 0 0-1.49 1.015 5.757 5.757 0 0 0-1.232 1.214.764.764 0 0 0 .06.853.789.789 0 0 0 .805.276 7.825 7.825 0 0 0 1.622-.631c.481-.21.949-.457 1.424-.685s.955-.439 1.436-.661c.12-.06.246-.114.372-.168a2.91 2.91 0 0 0 .535-.318c.1-.084.1-.084-.012.012l.174-.1a1.9 1.9 0 0 0 .469-.349 1.121 1.121 0 0 0-.775-1.89Z" data-name="Path 22139"/></g><g data-name="Group 27816"><path d="M206.561 7.03a13.8 13.8 0 0 0-2.295-2.091 18.947 18.947 0 0 0-2.631-1.838 8.81 8.81 0 0 0-3.178-1.069 2.936 2.936 0 0 0-2.962 1.3 17.934 17.934 0 0 0-3.328 6.4 2.481 2.481 0 0 0-.312.114 7.641 7.641 0 0 0-1.154.619 3.75 3.75 0 0 0-3.082 2.878 1.5 1.5 0 0 0 .342 1.394c-.967 1.039-1.928 2.079-2.836 3.172a442.35 442.35 0 0 0-4.554 5.575q-2.208 2.758-4.368 5.545c-.727.937-1.466 1.874-2.175 2.824a18.161 18.161 0 0 0-1.063 1.58 3.131 3.131 0 0 0-.679 1.658.8.8 0 0 0 .024.21 20.306 20.306 0 0 0-.889 2.637 43.186 43.186 0 0 1-1.087 3.22c-.391 1.033-.877 2.013-1.334 3.022-.246.541-.427 1.093-.691 1.628a3.361 3.361 0 0 0-.577 1.67.965.965 0 0 0 .168.457v.162a1.075 1.075 0 0 0 .03 1.16 1.043 1.043 0 0 0 1.55.877 26.409 26.409 0 0 0 2.169-1.508c.739-.487 1.49-.943 2.265-1.37 1.55-.859 3.172-1.532 4.788-2.259.757-.336 2.067-.589 1.941-1.652a.175.175 0 0 0-.012-.054 3.66 3.66 0 0 0 .192-.132c-.2.15-.246.186-.12.108a1.229 1.229 0 0 0 .529-.631 147.752 147.752 0 0 0 10.562-11.21c3.725-4.115 7.42-8.261 11.192-12.334a1.518 1.518 0 0 0 .288-1.712 11.624 11.624 0 0 0 3.791-4.061 5.828 5.828 0 0 0-.504-6.289Zm-7.119 10.868a5.769 5.769 0 0 1-.547-.7c.276.264.553.523.823.793a1.354 1.354 0 0 0-.276-.093Zm-9.618 11.8c-3.13 3.647-6.464 7.215-9.282 11.126a1.558 1.558 0 0 0-1.568-.018l-.144.108a.463.463 0 0 1-.09.012 1.623 1.623 0 0 0-.372-.174 2.478 2.478 0 0 0-.445-2.511 1.172 1.172 0 0 0-1.159-.306l-2.091.847c.03-.535.06-1.069.078-1.6s.036-1.045.06-1.568c.006-.222.018-.445.024-.667.415-.469.781-1 1.105-1.418.733-.937 1.424-1.9 2.133-2.86q2.145-2.9 4.277-5.8c1.388-1.9 2.764-3.8 4.145-5.707.931-1.286 1.8-2.613 2.655-3.941a1.649 1.649 0 0 0 1-.391c.433-.354.9-.691 1.358-1 .252-.174.511-.336.769-.493.072.018.144.036.216.06 1.3.523 2.025 2.109 2.6 3.268a11.477 11.477 0 0 0 2.529 3.953q-3.886 4.554-7.798 9.079Zm15.112-18.619c-.457 1.838-2.025 3.052-3.509 4.109a29.221 29.221 0 0 0-5.1-4.187 12.036 12.036 0 0 0-1.808-1.039 31.36 31.36 0 0 1 2.866-4.98c.264-.348.294-.487.727-.439a5.232 5.232 0 0 1 1.532.451 11.678 11.678 0 0 1 2.487 1.61c1.42 1.141 3.319 2.396 2.805 4.475Z" data-name="Path 22141"/><path d="M110.293 58.943a5.5 5.5 0 0 0-1.039.156c-.354.072-.709.1-1.057.168-.667.132-1.322.348-1.989.5-1.352.306-2.7.637-4.073.853-.613.1-.475 1.135.15 1.087a37.147 37.147 0 0 0 4.241-.511 16.258 16.258 0 0 0 2.079-.469c.336-.114.661-.276.991-.4a4.919 4.919 0 0 0 .955-.439.513.513 0 0 0-.258-.945Z" data-name="Path 22142"/><path d="M132.678 53.199a10.618 10.618 0 0 0-1.574.12c-.451.054-.9.042-1.34.09-1.021.12-2.031.366-3.04.511a32.5 32.5 0 0 0-5.852 1.616.7.7 0 0 0 .372 1.34 50.829 50.829 0 0 0 5.858-1.105c.955-.264 1.922-.463 2.878-.727.439-.12.859-.306 1.3-.427a13.552 13.552 0 0 0 1.526-.469.486.486 0 0 0-.128-.949Z" data-name="Path 22143"/><path d="M150.923 50.513a3.345 3.345 0 0 0 .391-.318.692.692 0 0 0 .144-.769.73.73 0 0 0-.643-.433 1.981 1.981 0 0 0-.859.078c-.246.072-.493.144-.739.222-.475.144-.949.282-1.424.427s-.949.282-1.424.427a7.253 7.253 0 0 0-1.514.589.718.718 0 0 0 .36 1.328 13.632 13.632 0 0 0 3.07-.745c.493-.144.985-.288 1.478-.427.246-.072.493-.138.739-.216a2.042 2.042 0 0 0 .421-.163Z" data-name="Path 22144"/><path d="M101.918 67.444a.82.82 0 0 0-.973-.553.8.8 0 0 0-.553.973 14.55 14.55 0 0 1 .7 2.764c.054.354.174.847.222 1.268a7.794 7.794 0 0 0 .2 1.5.594.594 0 0 0 1.135 0 3.956 3.956 0 0 0 .174-1.5 9.089 9.089 0 0 0-.1-1.616 14.261 14.261 0 0 0-.805-2.836Z" data-name="Path 22145"/><path d="M107.139 91.354c-.09-.649-.2-1.3-.294-1.947-.192-1.274-.409-2.541-.619-3.809a.757.757 0 0 0-.919-.523.768.768 0 0 0-.523.919c.18 1.28.354 2.553.553 3.827.1.625.18 1.25.288 1.874a3.974 3.974 0 0 0 .583 1.874c.318.384.853.108 1-.264a2.027 2.027 0 0 0 .036-1.021c-.033-.311-.063-.617-.105-.93Z" data-name="Path 22146"/><path d="M109.842 105.995c-.186-.469-.415-.9-.637-1.352a.684.684 0 0 0-.865-.282.7.7 0 0 0-.4.823c.108.463.138.805.21 1.286 0 .018.006.03.006.042.012.108.03.216.042.33l.054.276c.036.2.066.4.1.6.006.048.018.132.018.15.012.12.024.246.042.366a7.036 7.036 0 0 0 .138.805c.042.21.084.421.12.631a1.328 1.328 0 0 0 .366.745.736.736 0 0 0 1.033 0 1.45 1.45 0 0 0 .3-.475 2 2 0 0 0 .054-.5q.018-.324.018-.649a7.007 7.007 0 0 0-.2-1.5 9.856 9.856 0 0 0-.399-1.296Z" data-name="Path 22147"/><path d="M113.585 121.273a43.4 43.4 0 0 0-.312-2.157.794.794 0 0 0-1.556.21c.012.679.06 1.346.108 2.025q.045.568.126 1.135l.072.517a1.031 1.031 0 0 0 .354.655.737.737 0 0 0 1.135-.144 1.76 1.76 0 0 0 .168-1.262 12.915 12.915 0 0 0-.095-.979Z" data-name="Path 22148"/><path d="M122.903 123.742c-.156-.006-.312-.018-.469-.018a2.743 2.743 0 0 0-.541.09c-.3.066-.6.126-.9.21l-1.736.487a.605.605 0 0 0-.433.667.6.6 0 0 0 .595.529c.6-.078 1.2-.15 1.8-.228.336-.042.673-.108 1-.168a2.215 2.215 0 0 0 .583-.162c.138-.06.276-.126.415-.192a.651.651 0 0 0-.324-1.214Z" data-name="Path 22149"/><path d="M140.025 119.195a6.325 6.325 0 0 0-1.67.18c-.294.048-.577.024-.877.1-.264.066-.523.144-.781.216a30.23 30.23 0 0 0-3.13 1.105.619.619 0 0 0-.439.679.61.61 0 0 0 .607.535 32.079 32.079 0 0 0 3.388-.541c.264-.06.529-.12.793-.186a6.43 6.43 0 0 0 .757-.306 6.9 6.9 0 0 0 1.652-.685.6.6 0 0 0-.3-1.097Z" data-name="Path 22150"/><path d="M159.743 114.857a4.73 4.73 0 0 0-2.385.234c-.787.168-1.574.372-2.355.583a18.309 18.309 0 0 0-2.241.709c-.733.306-1.454.649-2.181.973-.457.2-.12.871.324.775.769-.168 1.544-.276 2.313-.415s1.526-.342 2.289-.517 1.532-.324 2.295-.481a4.711 4.711 0 0 0 2.241-.7.7.7 0 0 0-.3-1.161Z" data-name="Path 22151"/><path d="M175.34 110.405a1.1 1.1 0 0 0-.931-.072c-.168.054-.336.108-.5.156-.354.108-.691.246-1.033.378-.751.3-1.478.649-2.2.979a.892.892 0 0 0 .685 1.628c.751-.282 1.514-.559 2.253-.877.336-.15.673-.294 1-.469.156-.084.312-.168.469-.246a1.068 1.068 0 0 0 .595-.691.708.708 0 0 0-.338-.786Z" data-name="Path 22152"/><path d="M168.04 58.966a61.217 61.217 0 0 0-1.172-3.34.652.652 0 0 0-1.256.348c.264 1.172.571 2.325.907 3.478.162.565.33 1.129.493 1.694.084.294.168.583.258.877a2.408 2.408 0 0 0 .493.9.7.7 0 0 0 .769.144.727.727 0 0 0 .433-.643 4.727 4.727 0 0 0-.409-1.844c-.168-.532-.342-1.073-.516-1.614Z" data-name="Path 22153"/><path d="M171.278 77.038a9.079 9.079 0 0 0 .835 2.439.631.631 0 0 0 1.166-.312 9.068 9.068 0 0 0-.4-2.463c-.2-.841-.433-1.682-.673-2.517-.463-1.646-.937-3.28-1.5-4.89a.521.521 0 0 0-1 .276c.27 1.694.625 3.358.991 5.028.184.811.376 1.628.581 2.439Z" data-name="Path 22154"/><path d="M176.986 94.539c-.108-.487-.294-.955-.433-1.43-.276-.973-.541-1.947-.733-2.938a.7.7 0 0 0-1.364.186 19.485 19.485 0 0 0 .4 3.226 10.026 10.026 0 0 0 .457 1.61c.186.451.391 1 .6 1.472a.839.839 0 0 0 1.532-.643 13.629 13.629 0 0 1-.459-1.483Z" data-name="Path 22155"/><path d="M180.097 107.113c-.138-.4-.27-.8-.409-1.2a51.972 51.972 0 0 0-.9-2.481.612.612 0 0 0-.727-.415.6.6 0 0 0-.415.727c.222.853.475 1.688.733 2.529.126.4.252.805.372 1.214.066.216.126.439.2.655a3.911 3.911 0 0 0 .348.667c.282.469 1.154.312 1.1-.3a5.141 5.141 0 0 0-.09-.745c-.05-.224-.14-.434-.212-.651Z" data-name="Path 22156"/></g></g></g></svg>
