<svg xmlns="http://www.w3.org/2000/svg" width="224" height="400"><g data-name="Group 27821"><g data-name="Group 27819"><path d="M110.704 52.087a.981.981 0 0 0-.408-.318c-1.6-.685-3.328-1.117-4.993-1.652a180.373 180.373 0 0 0-4.944-1.514q-4.893-1.433-9.853-2.661c-6.621-1.64-13.307-2.986-20.018-4.2-1.892-.342-3.791-.661-5.689-.985-1.706-.288-3.425-.469-5.131-.727-.216-.511-.427-1.027-.637-1.538a8.861 8.861 0 0 0-1.85-3.16 6.893 6.893 0 0 0-3.316-1.64c-1.424-.324-2.86-.613-4.3-.907q-4.317-.883-8.663-1.616c-1.67-.282-3.346-.529-5.022-.769a16.631 16.631 0 0 0-4.782-.318.492.492 0 0 0-.319.691c-1.154 3.214-2.307 6.4-3.244 9.691s-1.856 6.627-2.6 9.979c-1.472 6.657-2.6 13.379-3.5 20.138q-.4 3.01-.745 6.02c-.12 1.027-.228 2.055-.343 3.082a7.8 7.8 0 0 0-.084 3.118 1.056 1.056 0 0 0 .949.721 148.391 148.391 0 0 0 24.716 9.666 206.306 206.306 0 0 0 25.84 6.218c2.457.421 4.92.817 7.4 1.105a31.265 31.265 0 0 0 6.272.427 3.539 3.539 0 0 0 2.331.6 4.366 4.366 0 0 0 3.022-2.151 13.507 13.507 0 0 0 1.28-2.83l.631-1.105q1.415-2.451 2.818-4.9 2.748-4.785 5.389-9.63c3.574-6.548 6.963-13.193 10.015-20q.658-1.46 1.292-2.926a6.652 6.652 0 0 0 .733-2.95c-.054-1.171-1.021-2.871-2.247-2.959ZM86.872 98.775a1.022 1.022 0 0 0-.234-.144c-1.94-.8-4.187-.841-6.248-1.147-2.139-.318-4.283-.613-6.422-.961q-6.506-1.072-12.941-2.559a238.615 238.615 0 0 1-25.443-7.378c-4.374-1.526-8.729-3.094-13.115-4.6a15.257 15.257 0 0 0 .174-1.616c.078-.937.18-1.874.282-2.812q.279-2.685.607-5.371c.4-3.37.877-6.729 1.382-10.081a262.36 262.36 0 0 1 3.8-19.946c.444-1.928.961-3.833 1.412-5.755.409-1.742.793-3.5 1.238-5.227a17.309 17.309 0 0 0 3.425.937q2.109.442 4.211.9c2.764.607 5.533 1.19 8.3 1.778q2.046.433 4.085.889a10.721 10.721 0 0 1 3.388.967 5.1 5.1 0 0 1 1.646 2.7c.42 1.147.847 2.289 1.3 3.418a42.2 42.2 0 0 0 3.256 6.789 1.338 1.338 0 0 0 1.748.577c4.794 1.526 9.678 2.722 14.551 3.965 2.7.691 5.407 1.388 8.117 2.061 1.358.336 2.709.667 4.067 1a27.79 27.79 0 0 1 3.569.925c1.953.763 1.706 3.479 1.694 5.179q-.018 3.965-.354 7.918a97.016 97.016 0 0 1-1.76 11.973c-.006.024-.018.048-.024.078a.351.351 0 0 0-.006.078 83.28 83.28 0 0 1-.7 3.016 86.74 86.74 0 0 1-2.451 8.129c-.108.3-.21.607-.318.913l-.4.739a7.1 7.1 0 0 0-.619 1.4c-.012.048-.012.09-.024.138-.042.072-.078.144-.126.21a2.393 2.393 0 0 1-1.067.92Z" data-name="Path 22136"/><path d="M73.12 349.872a106.985 106.985 0 0 0-1.814-16.774 176.793 176.793 0 0 0-4.2-17.6 62.739 62.739 0 0 0-3.112-8.495.639.639 0 0 0-.042-.841 2.294 2.294 0 0 0-.979-.595 11.149 11.149 0 0 0-1.544-.234 19.276 19.276 0 0 0-2.884-.06 52.8 52.8 0 0 0-7.486 1.214 163.789 163.789 0 0 0-15.873 4.145c-7.912 2.457-15.734 5.215-23.628 7.732q-3.028.964-6.044 1.94l-2.709.883c-.391.132-.793.252-1.177.391a2.992 2.992 0 0 0-1.424 1.214 1.207 1.207 0 0 0 .168 1.526 71.623 71.623 0 0 0 1.418 8.267c.625 2.908 1.3 5.8 2.061 8.681 1.52 5.731 3.268 11.4 5.173 17.014q.811 2.4 1.694 4.776a27.237 27.237 0 0 0 1.838 4.524 1.834 1.834 0 0 0 1.7 1.73 18.847 18.847 0 0 0 3.286-.234c1.075-.12 2.157-.246 3.232-.391 2.019-.264 4.031-.559 6.032-.913a107.7 107.7 0 0 0 10.838-2.505c3.779-1.081 7.492-2.385 11.174-3.761a241.926 241.926 0 0 1 12.184-4.205 59.5 59.5 0 0 0 6.566-2.385 24.718 24.718 0 0 0 5.635-3.472 1 1 0 0 0-.083-1.572ZM3.472 324.537c.769-.258 1.544-.511 2.313-.757a795.649 795.649 0 0 1 5.3-1.706c3.262-1.045 6.53-2.079 9.787-3.142 9.414-3.088 18.75-6.356 28.327-8.928 2.908-.781 5.845-1.538 8.8-2.1a21.256 21.256 0 0 1 2.9-.27c.511-.024 1.021-.06 1.532-.09a3.075 3.075 0 0 0 .51-.072 400.15 400.15 0 0 0 1.826 7.546.5.5 0 0 0-.336.084A52.56 52.56 0 0 0 59 319.608q-2.667 2.415-5.341 4.83-5.335 4.83-10.64 9.7c-1.346 1.232-2.866 3.028-4.782 3.3a7.62 7.62 0 0 1-2.842-.378q-1.7-.415-3.394-.841c-4.524-1.147-9.042-2.331-13.53-3.617a328.017 328.017 0 0 1-15.031-4.728 1.191 1.191 0 0 0-.444-.066q-.4-1.442-.853-2.866a1.731 1.731 0 0 0 .3-.042c.356-.102.692-.252 1.029-.36Zm57.44 29.5c-1.94.553-3.887 1.069-5.822 1.628-2.1.607-4.127 1.364-6.176 2.109a139.806 139.806 0 0 1-21.808 6.242q-2.965.55-5.954.955c-1.111.15-2.229.282-3.34.4-1 .108-2.025.156-3.022.312-.252-.889-.589-1.766-.889-2.619-.511-1.466-1.01-2.938-1.526-4.4q-1.5-4.236-2.866-8.507c-1.8-5.587-3.448-11.216-5.017-16.876-.246-.883-.48-1.772-.715-2.667 8.825 2.854 17.747 5.491 26.753 7.684a42.6 42.6 0 0 0 6.723 1.454c2.187.162 3.989-.979 5.563-2.373 3.593-3.19 7.029-6.591 10.526-9.895q2.938-2.776 5.864-5.575a63.545 63.545 0 0 0 5.816-5.912c.637 2.547 1.268 5.1 1.85 7.666q1 4.4 1.814 8.837c.535 2.9.961 5.822 1.646 8.675.373 1.55.547 3.166.793 4.74q.306 1.956.625 3.911a46.186 46.186 0 0 1-10.838 4.212Z" data-name="Path 22140"/><g data-name="Group 27817"><path d="M221.241 152.658c1.67-3.208 3.473-7.348 2.229-10.994a6.386 6.386 0 0 0-3.791-4.025 5.948 5.948 0 0 0-4.47.318.607.607 0 0 0-.06-.024 1.521 1.521 0 0 0-.769.012 1.08 1.08 0 0 0-.475-.439c-.546-.246-1.1-.481-1.664-.709a1.5 1.5 0 0 0-.018-.589c-.012-.042-.228-.6-.078-.174a1.624 1.624 0 0 1-.066-.18 1.952 1.952 0 0 1-.018-.084c.012-.1.024-.324.006-.276a11.112 11.112 0 0 1 .487-1.634c.475-1.37.775-2.926-.132-4.193a4.822 4.822 0 0 0-4.644-1.79c-1.76.21-3.911.571-4.95 2.169a8.512 8.512 0 0 0-1.01 2.691 6.085 6.085 0 0 0-.066 3.064 3.275 3.275 0 0 0-1.971 1.532.3.3 0 0 0-.258.24c-.937 4.908-1.977 9.793-2.836 14.719-.871 4.974-1.73 9.955-2.505 14.947-1.532 9.889-3.016 19.808-4.163 29.744a67.837 67.837 0 0 0-.535 8.189 36.39 36.39 0 0 0 .247 4.133c.174 1.43.3 2.854 1.322 3.941a.874.874 0 0 0 .631.282 1.845 1.845 0 0 0 .841.961 4.1 4.1 0 0 0-.012.667c.03.4.1.805.162 1.208.09.589.192 1.172.3 1.754l.324 1.748a4.525 4.525 0 0 0 .511 1.622 2.363 2.363 0 0 0 1.94 1.129 2.684 2.684 0 0 0 1.875-.823 6.957 6.957 0 0 0 1.592-3.16 14.968 14.968 0 0 0 .553-3.382 6.35 6.35 0 0 0 .751-.216 5.049 5.049 0 0 0 .721-.294 1.324 1.324 0 0 0 .511-.595c.018-.036.024-.054.036-.072s.03-.024.072-.09a.884.884 0 0 0 .06-.841.649.649 0 0 0 .12-.132 21.547 21.547 0 0 0 2.529-6.416c.588-2.259 1.057-4.548 1.46-6.849.835-4.752 1.61-9.516 2.409-14.275q.865-5.137 1.76-10.267a6.167 6.167 0 0 0 .679.763c1.616 1.526 4.4 2.193 6.122.427 1.508-1.55 1.718-4.608-.721-5.353-1.406-.427-2.247 1.117-1.742 2.265-.15-.33.2.631.108.415a.046.046 0 0 0-.012-.018.705.705 0 0 0-.012.084.45.45 0 0 0-.061.09.162.162 0 0 0-.03.066h-.006v-.018a.021.021 0 0 1-.006.018.823.823 0 0 1-.667-.066 3.451 3.451 0 0 1-1.664-2.9c-.246-3.292 1.724-6.476 3.376-9.162 1.872-3.06 4.02-5.968 5.678-9.158Zm-6.729 21.292c0 .006-.006.012-.006.018s.006-.006.006-.018Zm-.006.006c-.024.144-.162.06 0 0Zm-4.157-43.022c-.03-.042-.048-.078 0 0Zm-4.626-.246a13.024 13.024 0 0 1 2.139-.451 4.688 4.688 0 0 1 1.124-.012 2.108 2.108 0 0 1 .336.078c.084.024.162.048.246.078.018.006.024.012.036.012a.209.209 0 0 1 .036.018 3.61 3.61 0 0 1 .391.222s.042.03.072.054.114.108.126.12c.042.042.084.084.126.132.012.018.018.03.036.06l.09.162v.006a.275.275 0 0 0 .012.048c.006.024.024.12.036.162v.018a3.723 3.723 0 0 1-.012.372l-.036.18c-.036.15-.078.3-.126.445-.168.529-.4 1.033-.6 1.55a5.712 5.712 0 0 0-.385 1.862 16.97 16.97 0 0 0-3.532-.631 10.167 10.167 0 0 0-2.3.12 26.115 26.115 0 0 1 1-3.587 1.649 1.649 0 0 1 1.185-1.019Zm-1.628 66.518c-.415 2.583-.829 5.179-1.376 7.738-.541 2.529-1.352 5-1.82 7.54a1.254 1.254 0 0 0-.3-.042 3.086 3.086 0 0 0-.769.168c-.391.1-.781.216-1.177.3a10.008 10.008 0 0 1-2.151.216 12.117 12.117 0 0 1-2.187-.18 9.776 9.776 0 0 0-1.592-.252 8.462 8.462 0 0 0-.114-3.382 35.313 35.313 0 0 1-.252-3.563 59.616 59.616 0 0 1 .33-7.179c.48-4.884 1.159-9.751 1.778-14.617q1.892-14.824 3.773-29.642c.673-5.371 1.219-10.754 1.892-16.125a8.991 8.991 0 0 0 2.625-.553 10.637 10.637 0 0 1 3.118-.066c2.379.3 4.439 1.43 6.59 2.391a1.83 1.83 0 0 0 .679.156c-3.093 19.014-5.994 38.065-9.047 57.091Zm9.36-40.919c.925-5.467 1.808-10.946 2.7-16.419a3.76 3.76 0 0 1 3.382.547 5.1 5.1 0 0 1 1.376 4.524 16.66 16.66 0 0 1-2.007 5.485c-.9 1.694-1.934 3.31-2.992 4.908-1.027 1.55-2.1 3.082-3.1 4.656.215-1.232.431-2.464.641-3.702Z" data-name="Path 22157"/><path d="M214.62 173.709c-.066-.09-.06.252 0 0Z" data-name="Path 22158"/><path d="M214.621 173.709a.055.055 0 0 0 .006-.03c.004.012-.006.02-.006.03Z" data-name="Path 22159"/><path d="M196.093 226.884c-5.119.186-10.244.168-15.362.174-2.355.006-4.728.084-7.083-.018a16.383 16.383 0 0 1-.937-.066 3.145 3.145 0 0 0 .583-1.382 1.92 1.92 0 0 0-.529-1.8 3.835 3.835 0 0 0-2.061-.336 5.34 5.34 0 0 0-3.713 1.772.76.76 0 0 0 0 1.057 7.524 7.524 0 0 0 2.481 1.508 14.89 14.89 0 0 1-2.091 1.015 4.754 4.754 0 0 1-3.286.324 2.711 2.711 0 0 1-1.821-1.983c-.114-.9.685-1.64 1.154-2.313a2.731 2.731 0 0 0 .577-2.391c-.589-1.88-2.89-1.634-4.385-1.274-1.652.4-3.3.829-4.957 1.238a6.5 6.5 0 0 0 2.289-5.269c-.252-3-2.775-4.073-5.353-4.386.462-.5.919-1 1.364-1.514 1.724-2.007 4.68-4.974 3.19-7.846-1.153-2.235-4.169-2.583-6.4-2.607a42.865 42.865 0 0 0-2.151.036.6.6 0 0 0-.841-.463c-.391.18-.775.385-1.153.589a46.179 46.179 0 0 0-13.522 3.257 46.762 46.762 0 0 0-16.708 11.541.823.823 0 0 0 .163 1.268c1.76 1.292 4.073.715 5.947.006a81.072 81.072 0 0 0 6.807-2.944 82.106 82.106 0 0 0 12.7-7.618q2.614-1.91 5.053-4.025c2.277-.2 4.878-.439 7.029.372a2.488 2.488 0 0 1 1.886 2.271c-.048 1.442-1.28 2.727-2.145 3.773a53.893 53.893 0 0 1-3.436 3.779 35.171 35.171 0 0 0-17.7 4.722 34.57 34.57 0 0 0-8.447 6.831.921.921 0 0 0 0 1.262c1.784 2.1 4.788 1.923 7.2 1.226a39.471 39.471 0 0 0 8.213-3.719 53.965 53.965 0 0 0 11.4-8.609c.348.012.7.024 1.051.048a4.959 4.959 0 0 1 3.545 1.31 3.657 3.657 0 0 1 0 4.079 12.722 12.722 0 0 1-3.713 3.515c-.691.511-.318 1.742.619 1.472 1.676-.481 3.394-.841 5.088-1.25a29.457 29.457 0 0 1 4.518-1.039c.39-.03 1.069-.072 1.315.324.289.463-.246 1.075-.5 1.43-.727 1.015-1.436 2.007-1.171 3.322a4.165 4.165 0 0 0 2.229 2.758 5.417 5.417 0 0 0 3.989.192 14.3 14.3 0 0 0 4.007-1.94c.114-.078.234-.168.349-.252.36.066.727.12 1.1.156a69.789 69.789 0 0 0 7.354.108c5.419-.012 10.838-.06 16.257.114a.903.903 0 0 0 .008-1.805Zm-73.062-12.166c-1.616.655-3.881 1.838-5.714 1.34a44.909 44.909 0 0 1 26.573-13.4 88.667 88.667 0 0 1-20.859 12.06Zm8.777 9.6c-1.941.775-4.776 1.736-6.657.439a33.38 33.38 0 0 1 13.475-8.657 33.03 33.03 0 0 1 8.243-1.694c.234-.018.469-.03.709-.042a52.416 52.416 0 0 1-7.372 5.641 51.29 51.29 0 0 1-8.402 4.314Zm40.012.739a1.993 1.993 0 0 1-.817 1.646 6.889 6.889 0 0 1-2.319-.979 3.781 3.781 0 0 1 3.131-.666Z" data-name="Path 22160"/></g></g></g></svg>
